<svg id="Capa_1" enable-background="new 0 0 512 512" height="512" viewBox="0 0 512 512" width="512" xmlns="http://www.w3.org/2000/svg"><g><path d="m61 0v30h38.75l111.25 112.177v38.823h-120v241h-60v90h450v-90h-60v-241h-120v-38.823l111.25-112.177h38.75v-30c-42.65 0-347.838 0-390 0zm180 151h30v30h-30zm210 331h-390v-30h390zm-180-121v-30h30v91h-90v-91h30v30zm120-150v211h-60v-121h-150v121h-60v-211zm-21.002-181-90.248 91h-47.5l-90.248-91z"/><path d="m211 241h30v30h-30z"/><path d="m271 241h30v30h-30z"/></g></svg>