<svg viewBox="0 0 512.001 512" xmlns="http://www.w3.org/2000/svg"><path d="m467.070312 44.460938-46.835937 27.039062c-8.667969-6.578125-18.613281-12.105469-29.441406-16.359375v-55.140625h-89.863281v55.203125c-10.273438 4.148437-19.894532 9.644531-28.488282 16.269531l-46.789062-27.011718-44.929688 77.820312 46.632813 26.925781c-.878907 5.714844-1.308594 11.1875-1.308594 16.535157 0 5.351562.429687 10.824218 1.308594 16.539062l-16.285157 9.402344v-10.964844h-89.863281v54.144531c-10.828125 4.253907-20.773437 9.777344-29.441406 16.359375l-46.835937-27.039062-44.929688 77.824218 46.632812 26.921876c-.875 5.714843-1.308593 11.1875-1.308593 16.539062 0 5.347656.433593 10.820312 1.308593 16.535156l-46.632812 26.925782 44.929688 77.820312 46.835937-27.039062c8.671875 6.578124 18.617187 12.105468 29.441406 16.359374v55.140626h89.863281v-55.199219c10.273438-4.152344 19.894532-9.648438 28.488282-16.273438l46.789062 27.011719 44.933594-77.820312-46.636719-26.925782c.878907-5.714844 1.308594-11.1875 1.308594-16.535156 0-5.351562-.429687-10.824219-1.308594-16.539062l16.285157-9.402344v10.960937h89.863281v-54.140625c10.828125-4.253906 20.773437-9.78125 29.441406-16.359375l46.835937 27.039063 44.929688-77.820313-46.632812-26.921875c.878906-5.714844 1.308593-11.1875 1.308593-16.539062 0-5.351563-.429687-10.824219-1.308593-16.539063l46.632812-26.921875zm-216.332031 269.457031c1.628907 7.8125 5.261719 18.496093 5.261719 31.550781 0 13.097656-3.683594 23.980469-5.261719 31.546875l39.625 22.878906-14.980469 25.941407-39.652343-22.894532c-5.460938 4.339844-17.023438 20.03125-43.953125 28.136719l-10.660156 3.207031v46.972656h-29.957032v-46.972656l-10.660156-3.207031c-28.71875-8.644531-40.125-24.382813-44.949219-28.136719l-39.65625 22.894532-14.976562-25.941407 39.625-22.878906c-1.632813-7.808594-5.265625-18.496094-5.265625-31.546875 0-13.101562 3.683594-23.980469 5.265625-31.550781l-39.625-22.875 14.976562-25.941407 39.65625 22.894532c4.699219-3.660156 16.320313-19.519532 44.949219-28.136719l10.660156-3.207031v-45.976563h29.953125v45.976563l10.664063 3.207031c25.375 7.636719 36.207031 21.730469 41.726562 25.960937l9.4375-5.449218c9.011719-5.203125 20.527344-11.851563 30.957032-17.84375l16.460937 28.515625zm180.722657-179.722657c1.628906 7.8125 5.261718 18.496094 5.261718 31.550782 0 13.097656-3.683594 23.980468-5.261718 31.546875l39.621093 22.878906-14.976562 25.941406-39.65625-22.894531-8.109375 7.65625c-9.410156 8.890625-22.496094 16.164062-36.839844 20.476562l-10.660156 3.210938v45.976562h-29.953125v-45.976562l-10.664063-3.210938c-12.878906-3.875-24.289062-10.167968-33.910156-18.707031l-8.042969-7.140625-9.335937 5.34375c-9.234375 5.28125-20.675782 11.875-30.878906 17.761719l-16.417969-28.4375 39.625-22.878906c-1.628907-7.808594-5.261719-18.492188-5.261719-31.546875 0-13.101563 3.683594-23.980469 5.261719-31.550782l-39.625-22.875 14.980469-25.941406 39.652343 22.894532c5.472657-4.351563 17.023438-20.03125 43.953125-28.136719l10.660156-3.207031v-46.976563h29.957032v46.976563l10.660156 3.207031c28.722656 8.644531 40.121094 24.378906 44.949219 28.136719l39.65625-22.894532 14.976562 25.941406zm0 0"/><path d="m166.140625 300.539062c-24.777344 0-44.933594 20.152344-44.933594 44.929688 0 24.773438 20.15625 44.929688 44.933594 44.929688 24.773437 0 44.929687-20.15625 44.929687-44.929688 0-24.777344-20.15625-44.929688-44.929687-44.929688zm0 59.90625c-8.261719 0-14.980469-6.71875-14.980469-14.976562s6.71875-14.976562 14.980469-14.976562c8.257813 0 14.976563 6.71875 14.976563 14.976562s-6.71875 14.976562-14.976563 14.976562zm0 0"/><path d="m345.863281 120.8125c-24.777343 0-44.933593 20.15625-44.933593 44.933594 0 24.773437 20.15625 44.929687 44.933593 44.929687 24.773438 0 44.929688-20.15625 44.929688-44.929687 0-24.777344-20.15625-44.933594-44.929688-44.933594zm0 59.910156c-8.257812 0-14.976562-6.71875-14.976562-14.976562 0-8.257813 6.71875-14.976563 14.976562-14.976563 8.257813 0 14.976563 6.71875 14.976563 14.976563 0 8.257812-6.71875 14.976562-14.976563 14.976562zm0 0"/></svg>