<svg id="Capa_1" enable-background="new 0 0 512 512" height="512" viewBox="0 0 512 512" width="512" xmlns="http://www.w3.org/2000/svg"><g><path d="m435 212h-120c-24.813 0-45 20.187-45 45v45h20.729l-9.644 19.289c-7.252 14.503-11.085 30.741-11.085 46.957v143.754h210v-143.754c0-16.216-3.833-32.454-11.085-46.958l-9.644-19.288h20.729v-45c0-24.813-20.187-45-45-45zm-135 45c0-8.271 6.729-15 15-15h120c8.271 0 15 6.729 15 15v15h-150zm0 225v-105.158c14.783-3.272 30.049-4.527 45.178-3.716-.11 1.278-.178 2.568-.178 3.874 0 24.813 20.187 45 45 45 22.264 0 40.792-16.256 44.366-37.519 5.224-.177 10.44-.563 15.634-1.155v98.674zm75-105c0-8.271 6.729-15 15-15s15 6.729 15 15-6.729 15-15 15-15-6.729-15-15zm73.481-23.711c-6.464.811-12.97 1.247-19.486 1.297-7.781-13.484-22.34-22.586-38.995-22.586-11.91 0-22.747 4.66-30.804 12.241-18.473-2.174-37.31-1.703-55.682 1.371 2.99-9.467 5.609-12.759 20.757-43.612h101.459c13.759 28.785 19.579 35.728 22.751 51.289z"/><path d="m0 302h20.729l-9.644 19.289c-7.252 14.503-11.085 30.741-11.085 46.957v143.754h210v-143.754c0-16.216-3.833-32.454-11.085-46.958l-9.644-19.288h20.729v-30h-210zm30 180v-105.158c14.783-3.272 30.049-4.527 45.178-3.716-.11 1.278-.178 2.568-.178 3.874 0 24.813 20.187 45 45 45 22.264 0 40.792-16.256 44.367-37.519 5.224-.177 10.44-.563 15.633-1.155v98.674zm75-105c0-8.271 6.729-15 15-15s15 6.729 15 15-6.729 15-15 15-15-6.729-15-15zm73.481-23.712c-6.464.812-12.971 1.248-19.486 1.297-7.781-13.483-22.34-22.585-38.995-22.585-11.91 0-22.747 4.66-30.805 12.241-18.473-2.174-37.31-1.703-55.682 1.371 2.99-9.467 5.609-12.759 20.757-43.612h101.459c13.76 28.784 19.58 35.728 22.752 51.288z"/><path d="m0 0v30h90v36.188l-59.23 19.744c-18.404 6.134-30.77 23.291-30.77 42.691v113.377h210c0-23.053 0-88.455 0-113.377 0-19.4-12.366-36.556-30.77-42.691l-59.23-19.744v-36.188h392v-30zm30 197c0-8.271 6.729-15 15-15h120c8.271 0 15 6.729 15 15v15h-150zm150-68.377v25.958c-4.695-1.665-9.742-2.58-15-2.58h-120c-5.258 0-10.305.915-15 2.58v-25.958c0-6.467 4.122-12.185 10.256-14.23l64.744-21.582 64.744 21.582c6.134 2.045 10.256 7.763 10.256 14.23z"/><path d="m60 422h30v30h-30z"/><path d="m330 422h30v30h-30z"/></g></svg>