<?xml version="1.0" encoding="iso-8859-1"?>
<!-- Generator: Adobe Illustrator 19.0.0, SVG Export Plug-In . SVG Version: 6.00 Build 0)  -->
<svg version="1.1" id="Capa_1" xmlns="http://www.w3.org/2000/svg" xmlns:xlink="http://www.w3.org/1999/xlink" x="0px" y="0px"
	 viewBox="0 0 512 512" style="enable-background:new 0 0 512 512;" xml:space="preserve">
<g>
	<g>
		<path d="M416.299,191.399c-1.007-54.267-24.688-105.87-65.326-142.058c-20.298-18.076-43.634-31.477-69.362-39.831
			c-26.867-8.726-54.987-11.464-83.571-8.144c-40.89,4.751-80.235,23.308-110.787,52.253c-30.578,28.971-51.2,67.267-58.066,107.832
			c-8.126,48.005,1.649,96.722,27.371,137.063c19.481,30.55,29.978,69.231,29.978,111.857L86.539,512h239.795v-91.997h89.998
			v-89.998h69.27L416.299,191.399z M386.533,300.004v89.998h-89.998v91.998H116.338l-0.001-71.63
			c0-48.351-11.925-92.608-34.483-127.985c-22.08-34.628-30.063-74.716-23.088-115.928C70.642,96.293,130.671,39.394,201.503,31.164
			c47.89-5.568,93.887,8.849,129.519,40.579c35.151,31.304,55.311,76.232,55.311,123.263v3.541l50.728,101.457H386.533z"/>
	</g>
</g>
<g>
	<g>
		<path d="M288.463,84.318C264.436,64.302,232.806,56.1,201.67,61.815c-20.315,3.73-39.035,13.587-54.138,28.506
			c-15.109,14.926-25.188,33.528-29.15,53.797c-6.866,35.12,4.176,70.841,29.536,95.552c18.061,17.599,28.618,43.303,28.618,70.524
			v19.811h89.798v-19.689c0-32.883,17.496-58.659,32.172-74.492c17.944-19.357,27.826-44.506,27.826-70.816
			C326.334,133.779,312.53,104.369,288.463,84.318z M236.77,300.004h-30.814c-0.772-10.298-2.716-20.37-5.725-29.999h42.853
			C239.748,279.822,237.626,289.854,236.77,300.004z M276.507,215.429c-7.299,7.874-13.639,16.092-18.995,24.578h-21.178V201.22
			l25.606-25.607l-21.213-21.213l-19.394,19.393l-19.394-19.393l-21.213,21.213l25.805,25.607v38.786h-20.088
			c-5.011-7.962-10.902-15.3-17.595-21.822c-18.355-17.886-26.021-42.784-21.031-68.311c5.691-29.113,30.061-53.191,59.264-58.553
			c22.674-4.164,44.755,1.535,62.173,16.046c17.206,14.334,27.073,35.343,27.073,57.64
			C296.335,183.729,289.293,201.636,276.507,215.429z"/>
	</g>
</g>
<g>
</g>
<g>
</g>
<g>
</g>
<g>
</g>
<g>
</g>
<g>
</g>
<g>
</g>
<g>
</g>
<g>
</g>
<g>
</g>
<g>
</g>
<g>
</g>
<g>
</g>
<g>
</g>
<g>
</g>
</svg>
