<?xml version="1.0" encoding="utf-8"?>
<!-- Generator: Adobe Illustrator 25.4.1, SVG Export Plug-In . SVG Version: 6.00 Build 0)  -->
<svg version="1.1" id="Capa_1" xmlns="http://www.w3.org/2000/svg" xmlns:xlink="http://www.w3.org/1999/xlink" x="0px" y="0px"
	 viewBox="0 0 512 512" style="enable-background:new 0 0 512 512;" xml:space="preserve">
<g>
	<path d="M391,90.3V0H121v90.3c-22.5,2.5-40,21.6-40,44.7v377h350V135C431,111.9,413.5,92.8,391,90.3z M361,90h-30V30h30V90z
		 M211,90V30h30v60H211z M271,30h30v60h-30V30z M151,30h30v60h-30V30z M126,120h260c8.3,0,15,6.7,15,15v15H111v-15
		C111,126.7,117.7,120,126,120z M401,180v242H111V180H401z M111,482v-30h290v30H111z"/>
	<path d="M168.7,354.3c20.4,21.9,49.7,33,87.3,33s66.9-11.1,87.3-33c31.8-34.2,28.7-82,28.6-84l-0.9-12.9l-12.9-0.9
		c-1.6-0.1-30.1-2-58.8,11.7c-10.7-29.9-32.2-48.8-33.3-49.9l-9.8-8.5l-9.8,8.5c-1.2,1-22.7,19.9-33.3,49.9
		c-28.7-13.6-57.3-11.8-58.8-11.7l-12.9,0.9l-0.9,12.9C140,272.4,136.9,320.1,168.7,354.3L168.7,354.3z M321.1,334.1
		c-8,8.5-18.2,14.7-30.7,18.6c10.1-17.2,15-35.2,14.5-53.6c12.5-7.7,26.2-10.8,36.3-12C339.7,300.1,335,319.3,321.1,334.1
		L321.1,334.1z M237,299.2c0.7-20.2,10.9-37.1,19-47.4c8.1,10.3,18.3,27.1,19,47.2c0.6,17.1-5.8,34.2-19,50.9
		C242.8,333.3,236.4,316.3,237,299.2L237,299.2z M207,299.1c-0.4,18.4,4.4,36.3,14.5,53.5c-12.4-3.8-22.7-10.1-30.7-18.6
		c-13.8-14.8-18.6-34-20.1-47C180.8,288.3,194.5,291.4,207,299.1z"/>
</g>
</svg>
