<svg id="Capa_1" enable-background="new 0 0 510.041 510.041" height="512" viewBox="0 0 510.041 510.041" width="512" xmlns="http://www.w3.org/2000/svg"><g><path d="m503.965 199.575c-27.092-92.109-133.197-181.193-213.956-181.193-37.649 0-53.792 19.75-55.225 20.658l-42.415 42.415c-21.059 21.059-26.249 54.445-14.612 94.011 4.54 15.434 11.477 31.183 20.46 46.713-105.071-5.983-198.217 39.898-198.217 104.48v60c0 58.879 79.065 105 180 105s180-46.121 180-105v-34.135c31.139 7.715 64.416 6.001 86.927-16.512l42.427-42.427c21.059-21.058 26.248-54.444 14.611-94.01zm-213.956-151.193c33.826 0 76.608 20.635 114.216 54.561l-105.519 105.521c-24.079-26.677-41.55-56.041-49.741-83.889-8.274-28.134-5.707-51.583 7.044-64.334 7.869-7.869 19.308-11.859 34-11.859zm36.979 292.511c-5.535 13.185-18.533 25.893-37.498 36.237-25.483 13.9-58.601 22.31-94.49 24.145v-149.22c8.513.44 16.92 1.261 25.146 2.447 27.563 35.202 65.629 67.681 106.842 86.391zm-256.478-64.704c25.483-13.9 58.6-22.31 94.49-24.146v149.232c-35.889-1.836-69.007-10.245-94.49-24.145-25.744-14.041-40.51-32.439-40.51-50.471s14.766-36.428 40.51-50.47zm218.98 160.941c-60.025 32.741-158.969 32.734-218.98 0-25.744-14.041-40.51-32.439-40.51-50.471v-1.207c70.247 61.619 229.734 61.637 300 0-.251.64 3.838 27.488-40.51 51.678zm71.891-115.286c-65.49-19.263-135.522-89.155-154.842-154.843-8.275-28.134-5.707-51.582 7.043-64.333l.854-.853c2.778 42.459 28.625 93.972 73.393 138.739 42.918 42.919 95.3 70.471 138.728 73.404l-.842.842c-12.753 12.751-36.202 15.317-64.334 7.044zm72.758-37.612c-33.825 0-76.607-20.636-114.215-54.561l105.519-105.519c24.079 26.676 41.551 56.041 49.741 83.889 8.275 28.134 5.708 51.582-7.043 64.333-7.871 7.868-19.31 11.858-34.002 11.858z"/></g></svg>