<svg xmlns="http://www.w3.org/2000/svg" width="382.7" height="62.7" viewBox="0 0 382.7 62.7"><path d="M104.2,52.9H83.8l-4.7,9.2h-20L92.2,1h22.1l11.5,61.1H105.6Zm-2.1-14.4-2.5-17-8.5,17Z"/><path d="M212.2,1,201.4,62.1H182.3l5.3-30.4L173,62.1H156.6l-4.1-30.6-5.3,30.6H128.1L138.8,1h23.5l7,36.7L188.9,1Z"/><path d="M248.9,52.9H228.5l-4.7,9.2H203.7L236.9,1H259l11.5,61.1H250.3Zm-2.1-14.4-2.5-17-8.5,17Z"/><path d="M276.1,58.2c-4.5-3-6.7-7.4-6.7-13.1,0-.6.1-1.4.2-2.6H290a5.35,5.35,0,0,0,.8,4c.7.9,1.9,1.3,3.6,1.3A4.46,4.46,0,0,0,297,47a2.57,2.57,0,0,0,1-2.2,4,4,0,0,0-2-3.4,46.94,46.94,0,0,0-6.5-3.3,61.14,61.14,0,0,1-8.1-4,19.32,19.32,0,0,1-5.5-5.2,13.46,13.46,0,0,1-2.3-8.2,19.9,19.9,0,0,1,3.2-11.2,20.6,20.6,0,0,1,9-7.1A33.79,33.79,0,0,1,299,0a32,32,0,0,1,11.9,2.1,18.88,18.88,0,0,1,8.2,6,14.81,14.81,0,0,1,3,9.3c0,.5-.1,1.3-.2,2.4H301.3c.1-.7.2-1.1.2-1.4a3.33,3.33,0,0,0-.9-2.5A3.57,3.57,0,0,0,298,15a3.24,3.24,0,0,0-2.4.9,2.94,2.94,0,0,0-.9,2.2,4,4,0,0,0,2,3.3,49.51,49.51,0,0,0,6.3,3.5,70.79,70.79,0,0,1,8.1,4.4,19.52,19.52,0,0,1,5.6,5.5,14,14,0,0,1,2.3,8.3,17.88,17.88,0,0,1-3,10.1,19.49,19.49,0,0,1-8.6,7,31.9,31.9,0,0,1-13.3,2.5Q282.7,62.7,276.1,58.2Z"/><path d="M347.6,1l-6,34.4a13.33,13.33,0,0,0-.3,2.8,6.14,6.14,0,0,0,1.6,4.6,6.61,6.61,0,0,0,4.9,1.7,8.74,8.74,0,0,0,6.6-2.5,12.41,12.41,0,0,0,3.2-6.7l6-34.4h19.1l-6,34.4a33.77,33.77,0,0,1-6.2,15.1,28.38,28.38,0,0,1-11.3,9.1,35.78,35.78,0,0,1-14.7,3c-6.8,0-12.3-1.8-16.4-5.4S322,48.4,322,41.7a36.57,36.57,0,0,1,.6-6.5l6-34.4h19Z"/><circle cx="30.5" cy="31.6" r="30.5" fill="#bd0029"/></svg>