<?xml version="1.0" encoding="utf-8"?>
<!-- Generator: Adobe Illustrator 25.4.1, SVG Export Plug-In . SVG Version: 6.00 Build 0)  -->
<svg version="1.1" id="Layer_1" xmlns="http://www.w3.org/2000/svg" xmlns:xlink="http://www.w3.org/1999/xlink" x="0px" y="0px"
	 viewBox="0 0 55.6 26.1" style="enable-background:new 0 0 55.6 26.1;" xml:space="preserve">
<style type="text/css">
	.st0{fill:#D3B355;}
	.st1{fill:#BD232E;}
</style>
<rect x="0" y="19" class="st0" width="55.5" height="7.1"/>
<g>
	<g>
		<path d="M7.8,10.1H6l-2-6.3l-0.2,6.7h-2l0.5-9.2h2.7L7,7.5l1.8-6.2h2.8l0.5,9.2h-2.1L9.8,3.8L7.8,10.1z"/>
		<path d="M16.5,1.3h1.9l3.5,9.2h-2.3l-0.7-2h-3.2l-0.7,2H13L16.5,1.3z M18.5,7l-1.1-3.4L16.3,7H18.5z"/>
		<path d="M25.9,1.3c3.2,0,4.7,1.4,4.7,4.6c0,2.6-1,4.6-4.8,4.6H23V1.3H25.9z M28.4,5.9c0-1.7-0.6-2.8-2.6-2.8H25v5.7h0.8
			C27.7,8.8,28.4,7.7,28.4,5.9L28.4,5.9z"/>
		<path d="M34.4,5h2.8v1.7h-2.8v2.1h3.4v1.8h-5.4V1.3h5.2v1.8h-3.2V5z"/>
		<path d="M44.8,10.6h-2.1V1.3h2.1V10.6z"/>
		<path d="M48.8,10.6h-1.9V1.3h2.7l3,6.1V1.3h1.9v9.2h-2.4l-3.4-6.9V10.6z"/>
		<path d="M2.3,13.3h2.1V21c0,2.1-1.1,3.2-2.6,3.8l-1-1.5c1.4-0.6,1.5-1.3,1.5-2.8V13.3z"/>
		<path d="M8.9,13.3h1.9l3.5,9.2H12l-0.7-2H8.1l-0.7,2H5.4L8.9,13.3z M10.9,19l-1.1-3.4L8.6,19H10.9z"/>
		<path d="M15.4,22.6v-9.2H18c2.2,0,3.9,0.7,3.9,2.9c0,2.3-1.5,3.3-3.2,3.3h-1.2v3H15.4z M18.1,17.8c1.2,0,1.7-0.3,1.7-1.4
			c0-0.8-0.5-1.3-1.7-1.3h-0.6v2.7H18.1z"/>
		<path d="M25.9,13.3h1.9l3.5,9.2H29l-0.7-2h-3.2l-0.7,2h-2.1L25.9,13.3z M27.9,19l-1.1-3.4L25.6,19H27.9z"/>
		<path d="M34.2,22.6h-1.9v-9.2H35l3,6.1v-6.1H40v9.2h-2.4l-3.4-6.9V22.6z"/>
	</g>
	<circle class="st1" cx="48.9" cy="17.9" r="4.7"/>
</g>
</svg>
