<?xml version="1.0" encoding="utf-8"?>
<!-- Generator: Adobe Illustrator 25.4.1, SVG Export Plug-In . SVG Version: 6.00 Build 0)  -->
<svg version="1.1" id="Layer_1" xmlns="http://www.w3.org/2000/svg" xmlns:xlink="http://www.w3.org/1999/xlink" x="0px" y="0px"
	 viewBox="0 0 2800 1799.6" style="enable-background:new 0 0 2800 1799.6;" xml:space="preserve">
<style type="text/css">
	.st0{fill:#FFFFFF;}
	.st1{fill:#BE2330;}
	.st2{clip-path:url(#SVGID_00000033343167032553601050000008092182696317571224_);}
	.st3{fill:#BF9D51;}
	.st4{fill:#D3B356;}
	.st5{fill:#A68847;}
	.st6{fill:#262525;}
	.st7{fill:#231F20;}
	.st8{fill:#7F8080;}
	.st9{fill:#FFE4BB;}
	.st10{opacity:0.9;fill:#4D4D4D;}
	.st11{fill:#F2D79E;}
</style>
<rect class="st0" width="2800" height="1799.6"/>
<g>
	<circle class="st1" cx="1967.5" cy="968.2" r="528.9"/>
	<g>
		<defs>
			<circle id="SVGID_1_" cx="1967.5" cy="968.2" r="528.9"/>
		</defs>
		<clipPath id="SVGID_00000090291566107993137000000000364187996546715266_">
			<use xlink:href="#SVGID_1_"  style="overflow:visible;"/>
		</clipPath>
		<g style="clip-path:url(#SVGID_00000090291566107993137000000000364187996546715266_);">
			<path class="st3" d="M2631.6,1289l-6.7-164.6c-0.5-12.3-10.2-23.3-24.2-27.2c-62.4-17.3-163.3-4.2-226.2,48.1
				c-26.3,21.9-73.7,99.6-102.3,77.7c-7.3-5.5-18.5-9.7-25-15.7c-43.6-40.4-139-59.8-222.1-14.2c-14.6,8-34.4,5.5-45.9-6.1
				c-27.5-27.6-85.6-68.2-181.2-55.2c-64.4,8.8-151.1,24.9-230.3-28.5c-38.8-26.2-81.6-54.6-126.8-62.2c-14-2.3-28.2-3.1-42.3-2.3
				c-18.2,1-31.9,13.5-31.3,28.8l9.1,222.9c0.6,15.9,16.6,28.8,35.7,28.8l1186.5-1.4C2617.3,1317.8,2632.2,1304.9,2631.6,1289z"/>
			<path class="st4" d="M2485.3,1187.3c-25.8-12.1-41.5-35-67.4-46.8c-32-14.5-79-13.4-112-4.6c-30.3,8.1-54.4,26.3-75.1,45.6
				c-19.8,18.4-36.8,38.2-58.3,55.3c-23.7,18.9-44,30-77.5,35c-45.4,6.7-70.8-18.1-99.9-42.2c-22.2-18.4-43.7-38.3-72.6-48.8
				c-34.2-12.4-70.9-9.5-104.9-0.8c-27,7-51.2,17.2-79.8,7c-28.5-10.2-50.9-30.7-77.9-43.3c-98.7-46.2-240.8-27.1-287.1,62.1
				l7.2,177.2h1255.4l-8.8-214.8C2569.2,1149.4,2511.8,1199.8,2485.3,1187.3z"/>
			<path class="st5" d="M2572.1,1330.1c-30,3.1-60,4.8-90.5,3.6c-58.4-2.2-117.9-12.5-172.3-32.2c-45-16.3-80.1-49-128.7-58.2
				c-47.2-9-104-1.9-142.8,21.3c-20.2,12.1-37,27.7-57.9,39c-18.7,10.1-40.2,16.6-62.3,19.7c-44.3,6-90.4-0.6-131.7-16.5
				c-24.6-9.5-48.4-23.5-75.9-25.7c-27.2-2.2-53.3,6-79.6,9.7c-47.6,6.7-84.6-8.1-124.1-30.5c-40-22.6-78.3-40.6-127.4-37.8
				c-2.5,0.1-5,0.4-7.4,0.6l9.5,233.4h1255.4l-5.2-127.8C2612,1325.9,2591.6,1328.1,2572.1,1330.1z"/>
		</g>
	</g>
</g>
<rect x="1634.3" y="1399.3" class="st0" width="674.7" height="100.3"/>
<g>
	<ellipse class="st6" cx="1975.3" cy="1347.9" rx="504.3" ry="75.7"/>
	<g>
		<path class="st7" d="M2023.3,597.6c0,0,19-7.1,30.6,11.7c4.4,7.1,18.2,27-2.2,112.6c-4.5,18.8,0.6,63.4,0.6,63.4s-22.1-7.2-39.4-2
			c-17.3,5.2-25.7,13.6-35.1-6.6c-9.4-20.2,15-123.6,17.4-129.2S2023.3,597.6,2023.3,597.6z"/>
		<path class="st7" d="M1971.3,679.1c0,0,2.2,110.6-30.7,108.2c-12.8-0.9-24.1,2-24.2,12.2c-0.1,4.8-24.8-22.9-24.8-22.9
			c-23.6-43.3-15.9-90-13.8-108.9c5.3-46.5,24.3-60.5,29.2-67.7L1971.3,679.1z"/>
		<path class="st8" d="M1848.1,1233.7c0,0-6.6,0.7-16.4,0.5c-9.9-0.2-33.5,4.2-38.8,3.8c-5.3-0.4-146.9,6.7-146.9,6.7l-47.6,6
			c0,0-19.3,2.4-30,17.6c-9.3,13.4-13.9,28.6-6.3,41.9c7,12.4,24.7,35.6,37.4,43.3c12.7,7.8,33.8,28.5,144.5,23.6
			c110.7-4.9,167.7-11.3,210.7-12l57.8,7.8l211,2.3c0,0,40.4,5.7,102.9-30.5c23.3-13.5,44.2-34.5,44.2-34.5l0,0
			c0.7-0.8,14.4-16.8,8.2-35.5c-3.6-10.8-11.8-16.5-14.7-18.3c-29.1-7.8-58.3-15.7-87.4-23.5h-78.9l-57.3,9.4c0,0-32.1-8.9-45.3-8.2
			c-1,0-1-16.7-5.4-14.9c-51,20.2-186.7,17.1-234-1C1851,1216.5,1850.2,1228,1848.1,1233.7z"/>
		<path class="st9" d="M2292.8,1212.8c-45.1-21.1-87-60.2-98.1-69.7c-13.4-11.5-28.2-23.3-30.4-39.8c-1.5-11.1-0.7-21.8-6.1-61.1
			c-5.5-40-6.5-45.3-10.7-80.9c-2.1-17.4,3.5-69.4-15.9-96.7c-13.1-18.4-34.3-26-52.7-29.6c-30.2-6.7-52.4-17.4-52.4-17.4
			s-9.5-5.5-12.3-23.1c-5.3-33.9,1.2-44.8,1.2-44.8l-42.4,10.8l-42.4-10.8c0,0,6.5,10.9,1.2,44.8c-2.8,17.7-12.3,23.1-12.3,23.1
			s-22.2,10.7-52.4,17.4c-18.4,3.6-39.6,11.2-52.7,29.6c-19.4,27.3-13.8,79.2-15.9,96.7c-4.2,35.6-5.2,40.9-10.7,80.9
			c-5.4,39.2-4.6,49.9-6.1,61.1c-2.2,16.6-17.1,28.3-30.4,39.8c-11,9.5-53,48.5-98.1,69.7c-16.6,7.8-1.7,33,15,30.5
			c12.4-1.8,97.3-42.2,138.4-66.7c8-4.8,19.8-13.9,23.4-16.5c11.3-8.2,15-36.7,18.8-61.4c4.4-28.8,10.3-70.7,14.1-98.3
			c2.4,3.8,2.7,22.8,6.1,26.4c0,0,25.6,64.3,1.5,148.9c-4.8,16.8-17.4,62.3-17.4,62.3c18,11,70.5,25.3,119.9,25.3
			c59.9,0,101.9-14.3,119.9-25.3c0,0-10.8-41.7-15.6-58.6c-24.1-84.6-0.4-152.6-0.4-152.6c3.4-3.6,6.2-7.3,8.6-11.1
			c3.8,27.6,7.1,54.2,11.5,83c3.8,24.7,7.5,53.2,18.8,61.4c3.6,2.6,15.5,11.7,23.4,16.5c41.1,24.5,125.9,64.9,138.4,66.7
			C2294.5,1245.7,2309.4,1220.5,2292.8,1212.8z"/>
		<path class="st9" d="M1650.9,1214.2c0,0-10.2,2.1-13.4,1.3c-3.2-0.8-8-10.2-28.8-11.9c0,0-6.8-2.9-12.6-7
			c-5.8-4.1-17-14.4-22.5-17.2c0,0-7.2,0.7-8,1.8c-0.6,0.9-3,5-3,5c0,1.7,1.7,3.2,3.5,5.1l-7.5,11.2l-3.8,24.1l-9.3-6.5l-6.7,1.8
			l-9.3-5.5c0,0-10.9,0.9-8.6,4.2c2.3,3.3,29.4,31.9,29.4,31.9s-0.2,1.9,6.9,3.5s28.6,8.8,28.6,8.8s46.6,12.8,85.3-22.2
			C1709.8,1207.6,1650.9,1214.2,1650.9,1214.2z M1586.9,1230.6c-3.2,8.3-10.1,3.4-10.1,3.4l-8-9.6l2.4-16.4c0,0,4.9-8.7,5.2-8.5
			c3.3,2.9,7.1,5.5,11.9,12.6C1591.9,1217.5,1590.1,1222.3,1586.9,1230.6z"/>
		<path class="st9" d="M2273.8,1242.6c38.7,35,85.3,22.2,85.3,22.2s21.5-7.2,28.6-8.8s6.9-3.5,6.9-3.5s27.1-28.5,29.4-31.9
			c2.3-3.3-8.6-4.2-8.6-4.2l-9.3,5.5l-6.7-1.8l-9.3,6.5l-3.8-24.1l-7.5-11.2c1.9-1.9,3.6-3.5,3.5-5.1c0,0-2.4-4.2-3-5
			c-0.8-1.1-8-1.8-8-1.8c-5.4,2.8-16.7,13.1-22.5,17.2s-12.6,7-12.6,7c-20.8,1.6-25.6,11-28.8,11.9c-3.2,0.8-13.4-1.3-13.4-1.3
			S2235.1,1207.6,2273.8,1242.6z M2356.6,1212.1c4.8-7.1,8.6-9.7,11.9-12.6c0.3-0.3,5.2,8.5,5.2,8.5l2.4,16.4l-8,9.6
			c0,0-6.9,4.8-10.1-3.4C2354.8,1222.3,2353,1217.5,2356.6,1212.1z"/>
		<path class="st8" d="M1957.5,1360.2h33.4c0,0,110.7-126.3,104.1-126c-1,0-1-16.7-5.4-14.9c-51,20.2-186.7,17.1-234-1
			c-4.5-1.7-5.4,9.8-7.5,15.5L1957.5,1360.2z"/>
		<path class="st10" d="M1958,1302c-27.1,1-57.3,1.2-99.3-18.3c-39.1-20.4-39.4,12.2-113.4,1.5c-18.2-2.6-36.5-8.4-54.9-9.7
			c-9.5-0.7-50.3,3.3-53.1,18.3c55.9-19.1,152.6,24.1,238.9,16.9c8.1-0.7,24.4,4.9,31.2,21.8c2.1,5.2-24.8,1.3-32.2,1.2
			c-16.7-0.3-33.2-3.3-49.9-3.3c-16.2,0-32.3,1.3-48.4-0.3c-31.6-3.1-61.2-12.4-93.4-11.2c-18.1,0.7-29.1,0.2-48.1,7.7
			c-11.6,4.6-31.2,17.4-61.6-0.6c8.1,10.6,18.7,23.2,25.7,27.5c12.7,7.8,33.8,28.5,144.5,23.6c110.7-4.9,167.7-11.3,210.7-12
			l3.3,0.4V1302z"/>
		<path class="st10" d="M1968.9,1302c27.8,2.6,67.1-1.4,99.3-18.3c37.8-20.7,39.4,12.2,113.4,1.5c18.2-2.6,36-8.9,54.3-10.8
			c12.2-1.3,51.9,0.3,53.6,19.4c-27.3-7.5-46.3-5.2-68.4-2.1c-29.4,4.1-93,23.5-170.6,19c-8.1-0.5-30.8,5.5-31.2,21.8
			c-0.2,5.6,25,3.4,32.3,3.3c16.7-0.3,82.1-4.1,98.2-5.7c31.6-3.1,61.2-11.3,93.4-11.2c42.2,0.2,54.1,18.5,89.6,13
			c7-1.1,13.7-3.2,20.2-5.9c-11.2,9.9-27.8,19.1-34.7,23.4c-12.7,7.8-53.3,31.2-135.5,27.7c-110.7-4.8-133.7-2.4-176.3-5l-37.7-6.5
			V1302z"/>
		<path class="st9" d="M1904.8,681.4c0,0-1.7-7.6-6.8-5.9c-4.9,1.6-4.4,11.4-1.5,17.3c2.9,5.9,4.7,10.6,5.4,16.9
			c0.7,6.3,4.4,8.6,6.7,8.6c3.7,0,5.2-2.9,4-6.6C1911.5,708,1904.8,681.4,1904.8,681.4z"/>
		<path class="st9" d="M2042.5,681.4c0,0,2.4-7.6,7.6-5.9c4.9,1.6,4.4,11.4,1.5,17.3c-2.9,5.9-4.7,10.6-5.4,16.9
			c-0.7,6.3-4.4,8.6-6.7,8.6c-3.7,0-5.2-2.9-4-6.6C2036.6,708,2042.5,681.4,2042.5,681.4z"/>
		<path class="st7" d="M1917.5,802.2c0,0-8.3,2.2-12.3-1.1l-4.4-13.3l-0.4,12.8c-10.7-2.4-13.3-10.4-13.3-10.4s-11.6-56.5-11.1-72
			c0.6-16.4,19.6-1.6,19.6-1.6l17.4,36.7C1913,753.4,1912.5,794,1917.5,802.2z"/>
		<path class="st7" d="M2023.2,802c0,0,8.5,1.2,12.1-2.5l2.9-13.7l1.8,12.6c10.4-3.6,12.1-11.8,12.1-11.8s2.6-62.4,5.3-90.5
			c1.6-16.3-18.5,33.2-18.5,33.2l-11,22.3C2028,751.8,2027.3,793.3,2023.2,802z"/>
		<path class="st9" d="M2006.6,1372.2l-52.4,5.8h-70c0,0-41.1-3.6-47-2.9c-5.9,0.7-14.6,4.9-17.3,5.4c-13.4,2.8-25.9-7.5-30.9-14.6
			c-1.7-2.4-5.8-17.4,11.5-25.8c4.5-2.2,13-0.2,19.3-4.7c6.6-4.7,8.3-14.1,28.2-12.5c19.9,1.6,42,13.8,60.6,8
			c18.5-5.8,20.3-13.2,23.3-19.1c0,0,11.5-20.4,31-17.8c19.5,2.6,29,25.7,35.6,27l6.2,1.2
			C1997.2,1348.1,2006.6,1372.2,2006.6,1372.2z"/>
		<path class="st9" d="M2042.8,674.1c0,50.1-40.6,100.1-63.1,100.1c-3.5,0-11.5,0-15.1,0c-20,0-59.3-44.9-59.3-100.1
			c0-55.2,30.3-82.9,69.2-82.9C2013.5,591.3,2042.8,618.9,2042.8,674.1z"/>
		<path class="st8" d="M1921.5,816.1c0,0-0.3,0.7-1.7,1.4c-1.6,0.7-4,1.5-4.5,7.2c-0.9,9.6-16.9,83.1,20.4,103.5
			c0,0,30.3,18.4,70.6-1.1c17.1-8.3,30.7-34,27-99.3c0,0-0.7-8-4.5-9.1c-1.5-0.4-1.3-0.6-2.2-1c0,0-0.6-3.9,5.8-2.2
			c6.3,1.6,22,7.5,22,7.5s8.2,1.8,8.7,16.1c0.5,14.3,14.3,64.6,30.8,104.1c0,0,12.3,32.2-11.7,77.7c0,0-16,27.1-13.7,63.8
			c0.6,9-4.3,10.2-12.6,12.1c-43.9,10.1-120.2,9.9-169.3,0.6c-10.6-2-9.9-8-9.9-8s1.7-33.2-7.6-62.4c-9.2-29.2-25.1-38.4-11.7-96.9
			c0,0,21.8-38.1,24-85.6c0,0,0.6-14.3,9.8-18.9c0,0,18.6-11.1,26.5-11.6C1919.8,813.6,1921.2,814.3,1921.5,816.1z"/>
		<path class="st7" d="M2025.8,598.8c-4-14.3-17.4-23.1-28.8-26.7c-27.4-8.8-62.9,0-83.9,20.6c-14,13.7-13.4,27-16.5,35
			c-3.1,8,1.6,30.6,2.9,30.6c1.3,0,8.8,43.8,11.3,48.7c1.2,2.5,3.4,2.4,3.8,1.3c0,0-0.2-18.2,0.3-23.1c1.6-16.9,8.3-25.3,11.1-25.6
			c10-1.4,19-5.5,28.6-15.4c13.6-14,22.4-35.6,22.4-35.6c0.7,21.8-18.9,41.8-18.9,41.8l13.8-2.5c7.7-4.4,14.3-13.4,19.9-21.7
			c-1.9,9.5-8.2,19.7-8.2,19.7l18.1-1.4l1.2-1.3C2017.4,630,2029.8,613.5,2025.8,598.8z"/>
		<path class="st7" d="M2020.1,620.2c0,0-0.3,27.2,13.5,49.6c2,3.2,0.9,26.3,0.1,35.5c-0.2,2,3.5-0.4,3.9-2c0,0,5.2-20.2,9-38.8
			c4.7-23-22.4-56.9-22.4-56.9h-6"/>
		<path class="st11" d="M1968.5,1192.6c0,4.7,1.4,8.5,3.1,8.5c1.7,0,3.1-3.8,3.1-8.5c0-4.7-1.4-8.5-3.1-8.5
			C1969.9,1184.1,1968.5,1187.9,1968.5,1192.6z"/>
	</g>
</g>
</svg>
