<?xml version="1.0" encoding="utf-8"?>
<!-- Generator: Adobe Illustrator 25.4.1, SVG Export Plug-In . SVG Version: 6.00 Build 0)  -->
<svg version="1.1" id="Layer_1" xmlns="http://www.w3.org/2000/svg" xmlns:xlink="http://www.w3.org/1999/xlink" x="0px" y="0px"
	 viewBox="0 0 512 512" style="enable-background:new 0 0 512 512;" xml:space="preserve">
<g>
	<path d="M129.3,112.4c-41.3,8.4-72.4,45-72.4,88.7v218.4c0,49.9,40.6,90.5,90.5,90.5h217.2c49.9,0,90.5-40.6,90.5-90.5V201.1
		c0-43.7-31.1-80.3-72.4-88.7V2H129.3V112.4z M93.1,401.4V219.2h325.8v182.2H93.1z M364.6,473.8H147.4c-23.6,0-43.7-15.1-51.2-36.2
		h319.6C408.3,458.7,388.2,473.8,364.6,473.8z M415.8,183H96.2c7.5-21.1,27.6-36.2,51.2-36.2h217.2
		C388.2,146.8,408.3,161.9,415.8,183z M237.9,110.6V38.2h36.2v72.4H237.9z M346.5,110.6h-36.2V38.2h36.2V110.6z M201.7,38.2v72.4
		h-36.2V38.2H201.7z"/>
	<g>
		<path d="M227.9,327.2h-26.5l-3.7,12.5H174l28.4-75.4h25.4l28.3,75.4h-24.4L227.9,327.2z M223.1,310.9l-8.3-27.1l-8.2,27.1H223.1z"
			/>
		<path d="M309.9,327.2h-26.5l-3.7,12.5h-23.8l28.4-75.4h25.4l28.3,75.4h-24.4L309.9,327.2z M305,310.9l-8.3-27.1l-8.2,27.1H305z"/>
	</g>
</g>
</svg>
