<svg id="Capa_1" enable-background="new 0 0 512 512" height="512" viewBox="0 0 512 512" width="512" xmlns="http://www.w3.org/2000/svg"><g><path d="m58.755 0 53.113 512h288.264l53.113-512zm361.216 30-5.976 57.606c-15.612-2.85-32.329 1.738-44.375 13.785l-.214.215c-7.787 7.786-20.457 7.785-28.218.024l-.239-.239c-19.482-19.484-51.185-19.483-70.667 0l-.214.215c-7.786 7.787-20.455 7.787-28.242 0l-.214-.215c-19.482-19.482-51.184-19.482-70.692.024l-.19.19c-7.786 7.785-20.456 7.785-28.242 0l-.214-.215c-12.019-12.02-28.688-16.613-44.27-13.802l-5.975-57.588zm-46.888 452h-234.166l-37.798-364.37c6.827-2.07 14.546-.421 19.917 4.949l.239.239c9.742 9.742 22.538 14.612 35.334 14.612s25.592-4.871 35.333-14.612l.214-.215c7.787-7.786 20.457-7.785 28.218-.024l.239.239c19.482 19.482 51.184 19.483 70.692-.024l.19-.19c7.787-7.785 20.456-7.785 28.242 0l.214.215c19.483 19.483 51.185 19.483 70.692-.024l.19-.19c5.417-5.416 13.193-7.054 20.044-4.938z"/><path d="m256 349.011c-28.394 0-51.495 23.101-51.495 51.494 0 28.394 23.101 51.495 51.495 51.495s51.495-23.101 51.495-51.495-23.101-51.494-51.495-51.494zm0 72.989c-11.852 0-21.495-9.643-21.495-21.495s9.643-21.494 21.495-21.494 21.495 9.643 21.495 21.494c0 11.852-9.643 21.495-21.495 21.495z"/><path d="m211 288h30v30h-30z"/><path d="m271 228h30v30h-30z"/><path d="m211 168h30v30h-30z"/></g></svg>