<svg id="bold" height="512" viewBox="0 0 24 24" width="512" xmlns="http://www.w3.org/2000/svg"><path d="m17.26 0c-1.8 0-3.49.7-4.76 1.97l-10.53 10.53c-1.27 1.27-1.97 2.96-1.97 4.76 0 3.72 3.02 6.74 6.74 6.74 1.25 0 2.45-.34 3.49-.98-.19-.19-.36-.4-.54-.61-.27-.32-.46-.68-.56-1.06-.72.43-1.54.65-2.39.65-2.61 0-4.74-2.13-4.74-4.74 0-1.26.49-2.45 1.39-3.35l4.55-4.56 6.08 6.08c.64-.22 1.3-.35 1.97-.38.76-.04 1.52.04 2.25.24l3.79-3.79c1.27-1.27 1.97-2.96 1.97-4.76 0-3.72-3.02-6.74-6.74-6.74zm3.35 10.09-4.55 4.55-6.7-6.7 4.55-4.55c.9-.9 2.09-1.39 3.35-1.39 2.61 0 4.74 2.13 4.74 4.74 0 1.26-.49 2.45-1.39 3.35z"/><path d="m16.354 24c-1.808 0-3.581-.99-5.126-2.864-.305-.369-.305-.903 0-1.272 2.838-3.442 6.514-3.754 9.48-.844l1.554-1.696c.279-.304.716-.407 1.1-.256.385.149.638.519.638.932v5c0 .413-.253.783-.638.932-.382.149-.82.048-1.1-.256l-1.554-1.696c-1.351 1.326-2.84 2.02-4.354 2.02zm-3.006-3.5c.782.781 1.823 1.5 3.006 1.5s2.223-.718 3.005-1.499c-.796-.793-1.83-1.501-3.005-1.501-1.183 0-2.224.719-3.006 1.5z"/></svg>