<?xml version="1.0" encoding="utf-8"?>
<!-- Generator: Adobe Illustrator 25.4.1, SVG Export Plug-In . SVG Version: 6.00 Build 0)  -->
<svg version="1.1" id="Capa_1" xmlns="http://www.w3.org/2000/svg" xmlns:xlink="http://www.w3.org/1999/xlink" x="0px" y="0px"
	 viewBox="0 0 512 512" style="enable-background:new 0 0 512 512;" xml:space="preserve">
<g>
	<path d="M391,90.3V0H121v90.3c-22.5,2.5-40,21.6-40,44.7v377h350V135C431,111.9,413.5,92.8,391,90.3z M361,90h-30V30h30V90z
		 M211,90V30h30v60H211z M271,30h30v60h-30V30z M151,30h30v60h-30V30z M126,120h260c8.3,0,15,6.7,15,15v15H111v-15
		C111,126.7,117.7,120,126,120z M401,180v242H111V180H401z M111,482v-30h290v30H111z"/>
</g>
<g>
	<path d="M167.8,243.4h35l13.5,52.4l13.4-52.4h35v86.1h-21.8v-65.7l-16.8,65.7h-19.7l-16.8-65.7v65.7h-21.8V243.4z"/>
	<path d="M323.6,267.1H346V326l0.1,2.8c0,3.9-0.8,7.6-2.5,11.2s-3.9,6.4-6.6,8.6c-2.8,2.2-6.3,3.8-10.5,4.8c-4.3,1-9.1,1.5-14.6,1.5
		c-12.5,0-21.1-1.9-25.8-5.6c-4.7-3.8-7-8.8-7-15.1c0-0.8,0-1.8,0.1-3.2l23.2,2.6c0.6,2.2,1.5,3.6,2.7,4.5c1.8,1.2,4,1.8,6.6,1.8
		c3.4,0,6-0.9,7.7-2.8s2.6-5.1,2.6-9.6V318c-2.4,2.8-4.7,4.8-7.1,6.1c-3.7,2-7.7,2.9-11.9,2.9c-8.3,0-15.1-3.6-20.2-10.9
		c-3.6-5.2-5.5-12-5.5-20.5c0-9.7,2.4-17.1,7.1-22.2s10.9-7.6,18.4-7.6c4.9,0,8.9,0.8,12,2.5c3.2,1.6,6.1,4.4,8.8,8.2L323.6,267.1
		L323.6,267.1z M301.1,297.4c0,4.5,1,7.8,2.9,10s4.4,3.3,7.6,3.3c3,0,5.5-1.1,7.5-3.4s3-5.7,3-10.2s-1.1-8-3.2-10.4
		s-4.7-3.6-7.8-3.6s-5.5,1.1-7.3,3.3C302,288.6,301.1,292.3,301.1,297.4z"/>
</g>
</svg>
