<?xml version="1.0" encoding="utf-8"?>
<!-- Generator: Adobe Illustrator 25.4.1, SVG Export Plug-In . SVG Version: 6.00 Build 0)  -->
<svg version="1.1" id="Capa_1" xmlns="http://www.w3.org/2000/svg" xmlns:xlink="http://www.w3.org/1999/xlink" x="0px" y="0px"
	 viewBox="0 0 512 512" style="enable-background:new 0 0 512 512;" xml:space="preserve">
<g>
	<path d="M368.5,300.9H143.5c-58.2,0-105.5,47.3-105.5,105.5S85.3,512,143.5,512h225.1c58.2,0,105.5-47.3,105.5-105.5
		S426.7,300.9,368.5,300.9z M67.9,406.5c0-41.6,33.9-75.5,75.5-75.5H241V482h-97.5C101.8,482,67.9,448.1,67.9,406.5z M368.5,482H271
		V330.9h97.5c41.6,0,75.5,33.9,75.5,75.5S410.2,482,368.5,482z"/>
	<path d="M256,270.9c59.3,0,105.4-17.3,137.2-51.5C443,165.9,438.1,91,437.9,87.9L437,75L424,74c-2.6-0.2-54.3-3.5-102.4,23.5
		c-14.9-53.2-53.8-87.4-55.8-89.1L256,0l-9.8,8.5c-2,1.7-40.9,35.9-55.8,89.1C142.3,70.5,90.6,73.8,88,74L75,75l-0.9,12.9
		c-0.2,3.2-5.1,78,44.7,131.5C150.6,253.6,196.7,270.9,256,270.9z M141,199.2c-20.5-22-29.7-49.2-33.8-70.9l109.4,109.4
		C184.9,232,159.6,219.1,141,199.2z M371.1,199.2c-18.6,20-44,32.8-75.5,38.5l109.4-109.4C400.8,150,391.6,177.2,371.1,199.2z
		 M383.7,107l-59,59c2.1-10.9,2.9-21.9,2.5-32.9c0-1.2-0.1-2.4-0.2-3.6C345.8,116.7,366.4,110.3,383.7,107z M297.2,134.4
		c0.9,27.3-7.9,54.3-26.2,80.6V60.4C283.5,78.6,296.2,104.4,297.2,134.4z M214.8,134.4c1-30,13.7-55.8,26.2-74.1V215
		C222.6,188.7,213.8,161.7,214.8,134.4z M187.3,166l-59-59c17.2,3.3,37.9,9.7,56.6,22.5c-0.1,1.2-0.1,2.4-0.2,3.6
		C184.4,144.2,185.2,155.1,187.3,166L187.3,166z"/>
</g>
</svg>
