<?xml version="1.0" encoding="utf-8"?>
<!-- Generator: Adobe Illustrator 25.4.1, SVG Export Plug-In . SVG Version: 6.00 Build 0)  -->
<svg version="1.1" id="Capa_1" xmlns="http://www.w3.org/2000/svg" xmlns:xlink="http://www.w3.org/1999/xlink" x="0px" y="0px"
	 viewBox="0 0 512 512" style="enable-background:new 0 0 512 512;" xml:space="preserve">
<g>
	<path d="M372.3,293.8H139.7c-60.1,0-109.1,48.9-109.1,109.1S79.5,512,139.7,512h232.6c60.1,0,109.1-48.9,109.1-109.1
		S432.5,293.8,372.3,293.8z M61.6,402.9c0-43,35-78.1,78.1-78.1h100.8V481H139.7C96.6,481,61.6,446,61.6,402.9z M372.3,481H271.5
		V324.9h100.8c43,0,78.1,35,78.1,78.1S415.4,481,372.3,481z"/>
	<path d="M479.4,115c14.1-12,23.1-29.8,23.1-49.7c0-36-29.3-65.2-65.2-65.2c-30.6,0-56.4,21.2-63.4,49.7H138.1
		C131.2,21.2,105.4,0,74.8,0C38.8,0,9.5,29.3,9.5,65.2c0,19.9,9,37.8,23.1,49.7c-14.1,12-23.1,29.8-23.1,49.7
		c0,36,29.3,65.2,65.2,65.2c30.6,0,56.4-21.2,63.4-49.7h235.7c7,28.5,32.7,49.7,63.4,49.7c36,0,65.2-29.3,65.2-65.2
		C502.5,144.8,493.5,126.9,479.4,115z M471.5,164.7c0,18.9-15.4,34.2-34.2,34.2c-18.9,0-34.2-15.4-34.2-34.2v-15.5H109v15.5
		c0,18.9-15.4,34.2-34.2,34.2s-34.2-15.4-34.2-34.2s15.4-34.2,34.2-34.2v-31c-18.9,0-34.2-15.4-34.2-34.2S55.9,31,74.8,31
		S109,46.4,109,65.2v15.5h294V65.2c0-18.9,15.4-34.2,34.2-34.2c18.9,0,34.2,15.4,34.2,34.2s-15.4,34.2-34.2,34.2v31
		C456.1,130.5,471.5,145.8,471.5,164.7L471.5,164.7z"/>
</g>
</svg>
