<?xml version="1.0" encoding="utf-8"?>
<!-- Generator: Adobe Illustrator 25.4.1, SVG Export Plug-In . SVG Version: 6.00 Build 0)  -->
<svg version="1.1" id="Layer_1" xmlns="http://www.w3.org/2000/svg" xmlns:xlink="http://www.w3.org/1999/xlink" x="0px" y="0px"
	 viewBox="0 0 512 512" style="enable-background:new 0 0 512 512;" xml:space="preserve">
<path d="M401.5,80.1h-10.4V0H120.9v80.1h-10.4c-33.3,0-60.5,27.1-60.5,60.5v311c0,33.3,27.1,60.5,60.5,60.5h291
	c33.3,0,60.5-27.1,60.5-60.5v-311C462,107.2,434.8,80.1,401.5,80.1z M361.1,80.1h-30V30h30V80.1z M211,80.1V30H241v50.1H211z
	 M271,30h30v50.1h-30V30z M150.9,30h30v50.1h-30V30z M110.5,110.1h291c16.8,0,30.5,13.7,30.5,30.5v45H80v-45
	C80,123.7,93.7,110.1,110.5,110.1z M432,215.6v160.9H80V215.6H432z M401.5,482h-291C93.7,482,80,468.3,80,451.5v-45H432v45
	C432,468.3,418.3,482,401.5,482z"/>
</svg>
