<?xml version="1.0" encoding="utf-8"?>
<!-- Generator: Adobe Illustrator 25.4.1, SVG Export Plug-In . SVG Version: 6.00 Build 0)  -->
<svg version="1.1" id="Capa_1" xmlns="http://www.w3.org/2000/svg" xmlns:xlink="http://www.w3.org/1999/xlink" x="0px" y="0px"
	 viewBox="0 0 512 512" style="enable-background:new 0 0 512 512;" xml:space="preserve">
<g>
	<g>
		<path d="M414,93.2V0H98v93.2c-32.5,16.6-54.8,50.5-54.8,89.4v229c0,55.4,45,100.4,100.4,100.4h224.8c55.4,0,100.4-45,100.4-100.4
			v-229C468.8,143.7,446.5,109.8,414,93.2z M128,30h256v53.4c-5.1-0.8-10.3-1.2-15.6-1.2H143.6c-5.3,0-10.5,0.4-15.6,1.2L128,30
			L128,30z M73.2,182.6c0-38.8,31.6-70.4,70.4-70.4h224.8c38.8,0,70.4,31.6,70.4,70.4v3.4H73.2V182.6z M438.8,411.6
			c0,38.8-31.6,70.4-70.4,70.4H143.6c-38.8,0-70.4-31.6-70.4-70.4v-3.4h365.6V411.6z M438.8,378.2H73.2V216h365.6V378.2z"/>
	</g>
</g>
<g>
	<path d="M223.9,249.3h51.2c11.1,0,19.5,2.7,25.1,8s8.3,12.8,8.3,22.6c0,10.1-3,17.9-9.1,23.6c-6.1,5.7-15.3,8.5-27.7,8.5h-16.9v37
		h-30.9V249.3z M254.8,291.8h7.5c5.9,0,10.1-1,12.5-3.1c2.4-2.1,3.6-4.7,3.6-7.9c0-3.1-1-5.8-3.1-8c-2.1-2.2-6-3.3-11.8-3.3h-8.8
		V291.8z"/>
</g>
</svg>
