<svg id="Capa_1" enable-background="new 0 0 512 512" height="512" viewBox="0 0 512 512" width="512" xmlns="http://www.w3.org/2000/svg"><g><path d="m375.1 198.171v-81.695h-45.048l-4.521-52.66c-1.499-17.458-9.433-33.596-22.342-45.444-12.909-11.847-29.668-18.372-47.189-18.372s-34.28 6.525-47.189 18.373-20.843 27.987-22.342 45.444l-4.521 52.66h-45.048v81.695c-18.902 5.333-32.8 22.721-32.8 43.305v270.523h303.8v-270.523c0-20.585-13.898-37.973-32.8-43.306zm2.8 60.357c-4.044-.962-8.225-1.467-12.486-1.467-14.3 0-27.745 5.569-37.856 15.681l-.236.236c-3.836 3.835-8.679 6.044-13.684 6.674v-53.175h49.262c8.271 0 15 6.729 15 15zm-94.263 6.235c-8.27-5.017-17.775-7.703-27.696-7.703-9.873 0-19.336 2.657-27.578 7.628v-38.212h55.273v38.287zm-55.274 37.714c3.821-2.248 7.421-5.009 10.698-8.286l.236-.236c4.446-4.445 10.356-6.894 16.644-6.894s12.198 2.448 16.644 6.894l.236.236c3.31 3.31 6.952 6.092 10.816 8.352v77.394c0 5.274-2.774 10.192-7.241 12.835-9.14 5.409-16.163 13.171-20.483 22.266-4.93-10.366-12.788-18.65-20.604-23.498-4.284-2.657-6.945-7.505-6.945-12.653v-76.41zm-12.004-236.094c1.781-20.741 18.823-36.383 39.641-36.383s37.86 15.642 39.641 36.383l4.3 50.093h-87.883zm128.741 80.094v50h-178.2v-50zm-196 80h49.263v53.192c-5.048-.609-9.936-2.826-13.802-6.691l-.236-.236c-10.112-10.112-23.556-15.681-37.856-15.681-4.22 0-8.361.497-12.368 1.441v-17.025c-.001-8.271 6.728-15 14.999-15zm-15 255.523v-191.432c3.681-2.282 7.929-3.508 12.368-3.508 6.287 0 12.198 2.448 16.644 6.894l.236.236c9.716 9.716 22.268 14.904 35.015 15.576v69.122c0 15.68 7.9 29.94 21.132 38.147 4.777 2.963 11.505 11.116 11.505 19.965v15h50v-15c0-11.221 8.17-16.927 10.674-18.409 13.547-8.017 21.962-22.828 21.962-38.654v-70.18c12.707-.697 25.211-5.881 34.897-15.567l.236-.236c4.446-4.445 10.356-6.894 16.644-6.894 4.487 0 8.779 1.253 12.486 3.583v191.357z"/></g></svg>