<?xml version='1.0' encoding='utf-8'?>
<!DOCTYPE svg PUBLIC '-//W3C//DTD SVG 1.1//EN' 'http://www.w3.org/Graphics/SVG/1.1/DTD/svg11.dtd'>
<svg version="1.1" xmlns="http://www.w3.org/2000/svg" viewBox="0 0 512 512" xmlns:xlink="http://www.w3.org/1999/xlink" enable-background="new 0 0 512 512">
  <g>
    <path d="m256,11c-137.4,0-245,71.9-245,163.8v162.5c0,91.8 107.6,163.7 245,163.7s245-71.9 245-163.8v-162.4c0-91.9-107.6-163.8-245-163.8zm204.2,163.8c0,66.6-93.5,122.9-204.2,122.9-28.3,0-55.5-3.7-80.3-10.3l189.9-215.7c56.4,22.2 94.6,60.5 94.6,103.1zm-204.2-123c23.2,0 45.6,2.5 66.6,7l-188.4,213.9c-49.7-22.7-82.4-58.5-82.4-97.9 1.42109e-14-66.7 93.5-123 204.2-123zm204.2,285.4c0,66.6-93.5,122.9-204.2,122.9-110.7,0-204.2-56.3-204.2-122.9v-70.8c43.5,43.8 118,72.1 204.2,72.1 86.2,0 160.6-28.3 204.2-72.1v70.8z"/>
  </g>
</svg>
