<svg height="512pt" viewBox="-45 0 511 512" width="512pt" xmlns="http://www.w3.org/2000/svg"><path d="m.5 0v512h420.3125v-512zm30 482v-360.667969h25.03125v-30h-25.03125v-61.332031h360.3125v61.332031h-25.03125v30h25.03125v360.667969zm0 0"/><path d="m218.941406 183.828125-8.285156-5.488281-8.285156 5.488281c-3.515625 2.328125-86.027344 58.089844-86.027344 151.859375 0 52.003906 42.308594 94.3125 94.3125 94.3125s94.3125-42.308594 94.3125-94.3125c0-93.769531-82.515625-149.53125-86.027344-151.859375zm42.742188 94.644531-36.027344 25.300782v-75.105469c4.371094 4.355469 9.027344 9.382812 13.660156 15.035156 9.246094 11.292969 16.703125 22.902344 22.367188 34.769531zm-79.6875-34.769531c4.632812-5.652344 9.289062-10.679687 13.660156-15.035156v75.105469l-36.027344-25.300782c5.664063-11.867187 13.121094-23.476562 22.367188-34.769531zm-35.652344 91.984375c0-9.359375 1.023438-18.613281 3.046875-27.746094l46.265625 32.492188v57.78125c-28.25-6.777344-49.3125-32.230469-49.3125-62.527344zm79.3125 62.527344v-57.78125l46.265625-32.488282c2.023437 9.132813 3.046875 18.386719 3.046875 27.742188 0 30.296875-21.0625 55.75-49.3125 62.527344zm0 0"/><path d="m85.554688 91.332031h40.035156v30h-40.035156zm0 0"/><path d="m155.613281 91.332031h40.03125v30h-40.03125zm0 0"/><path d="m225.667969 91.332031h40.03125v30h-40.03125zm0 0"/><path d="m295.722656 91.332031h40.035156v30h-40.035156zm0 0"/></svg>