<svg id="Capa_1" enable-background="new 0 0 510 510" height="512" viewBox="0 0 510 510" width="512" xmlns="http://www.w3.org/2000/svg"><g><path d="m330 149.896h30v30h-30z"/><path d="m270 404.897h90v-30h-60v-30h60v-30h-60v-30h60v-30.001h-90z"/><path d="m270 194.896h30v30h-30z"/><path d="m317.875.104c-40.802 45.585-74.366 87.669-103.382 128.316-24.459-44.205-62.129-90.534-95.966-128.316-37.708 42.103-118.527 138.353-118.527 195.003 0 67.87 57.322 122.497 125.858 118.294-.065 1.478-.108 2.94-.108 4.37 0 105.938 86.186 192.125 192.125 192.125s192.125-86.186 192.125-192.124c0-90.231-131.568-250.034-192.125-317.668zm-199.348 283.531c-48.814 0-88.527-39.713-88.527-88.528 0-39.652 63.035-119.322 88.528-149.581 25.504 30.265 88.525 109.942 88.525 149.581.001 48.815-39.712 88.528-88.526 88.528zm199.348 196.262c-89.396 0-162.125-72.729-162.125-162.125 0-3.231.247-6.7.723-10.365 46.803-15.858 80.581-60.207 80.581-112.299 0-10.129-2.602-21.998-7.776-35.543 33.911-49.081 70.693-93.301 88.645-114.227 53.927 62.465 162.077 202.241 162.077 272.434 0 89.396-72.728 162.125-162.125 162.125z"/></g></svg>